<svg width="512" height="512" viewBox="0 0 512 512" fill="none" xmlns="http://www.w3.org/2000/svg">
<path d="M359.392 387H199.578C175.171 386.994 151.246 380.206 130.478 367.397C109.709 354.587 92.9146 336.259 81.9711 314.461C71.0276 292.663 66.3662 268.255 68.5076 243.962C70.6491 219.67 79.5092 196.451 94.0978 176.9C108.686 157.349 128.429 142.237 151.119 133.252C173.809 124.266 198.552 121.762 222.585 126.019C246.617 130.275 268.992 141.125 287.208 157.356C305.424 173.587 318.764 194.559 325.737 217.929H359.392C381.832 217.929 403.352 226.835 419.219 242.689C435.086 258.542 444 280.044 444 302.464C444 324.885 435.086 346.387 419.219 362.24C403.352 378.094 381.832 387 359.392 387Z" stroke="#0284C5" stroke-width="36" stroke-linecap="round" stroke-linejoin="round"/>
</svg>
